<?xml version="1.0" encoding="utf-8"?>
<!-- Generator: Adobe Illustrator 23.0.3, SVG Export Plug-In . SVG Version: 6.00 Build 0)  -->
<svg version="1.1" xmlns="http://www.w3.org/2000/svg" xmlns:xlink="http://www.w3.org/1999/xlink" x="0px" y="0px"
	 viewBox="0 0 187.414 39.921" style="enable-background:new 0 0 187.414 39.921;" xml:space="preserve">
<style type="text/css">
	.st0{fill:#00B0B9;}
	.st1{fill:#5A6771;}
</style>
<g id="Layer_1">
</g>
<g id="TM">
	<g>
		<g id="ym">
			<path class="st0" d="M12.313,20.545c-1.559,4.005-3.301,5.488-6.453,5.488c-1.892,0-3.264-0.444-4.636-1.187l1.52-3.338
				c0.816,0.445,1.706,0.742,2.633,0.742c1.262,0,2.04-0.557,2.782-2.262L0,0.408h4.784l5.562,14.537l5.081-14.537h4.673
				L12.313,20.545z"/>
			<path class="st0" d="M45.765,0c4.264,0,6.861,2.707,6.861,7.491v12.498h-4.487V8.863c0-3.115-1.446-4.783-3.968-4.783
				c-2.448,0-4.19,1.706-4.19,4.858v11.051h-4.489V8.826c0-3.041-1.483-4.747-3.967-4.747c-2.486,0-4.192,1.854-4.192,4.896v11.014
				h-4.487V0.408h4.487v2.966C28.594,1.631,30.3,0,33.304,0c2.819,0,4.784,1.371,5.823,3.448C40.721,1.371,42.798,0,45.765,0z"/>
		</g>
		<g>
			<path class="st1" d="M67.263,20.486c-5.601,0-9.828-4.562-9.828-9.976c0-5.452,4.227-10.051,9.828-10.051
				c3.634,0,5.896,1.521,7.676,3.412l-1.891,2.003c-1.521-1.595-3.226-2.893-5.823-2.893c-3.894,0-6.861,3.301-6.861,7.454
				c0,4.19,3.041,7.491,7.046,7.491c2.448,0,4.34-1.224,5.86-2.856l1.818,1.706C73.159,18.929,70.86,20.486,67.263,20.486z"/>
			<path class="st1" d="M79.798,4.539l-0.853-2.336c2.114-0.965,4.19-1.595,6.972-1.595c5.229,0,8.159,2.67,8.159,7.714v11.719
				h-2.744v-2.893c-1.335,1.743-3.56,3.301-6.935,3.301c-3.56,0-7.157-2.003-7.157-6.008c0-4.079,3.338-6.231,8.196-6.231
				c2.448,0,4.191,0.334,5.897,0.816V8.359c0-3.449-2.114-5.229-5.712-5.229C83.359,3.13,81.579,3.723,79.798,4.539z M80.132,14.33
				c0,2.447,2.225,3.857,4.821,3.857c3.523,0,6.415-2.151,6.415-5.192v-1.854c-1.409-0.408-3.301-0.816-5.637-0.816
				C82.134,10.325,80.132,11.883,80.132,14.33z"/>
			<path class="st1" d="M101.902,20.041h-2.855V0.868h2.855v5.007c1.409-3.19,4.191-5.489,7.826-5.34v3.078h-0.223
				c-4.19,0-7.603,3.004-7.603,8.79V20.041z"/>
			<path class="st1" d="M120.594,18.002c2.633,0,4.487-1.076,6.045-2.707l1.78,1.595c-1.929,2.151-4.265,3.597-7.899,3.597
				c-5.267,0-9.568-4.042-9.568-10.013c0-5.563,3.894-10.013,9.197-10.013c5.674,0,8.938,4.524,8.938,10.162
				c0,0.26,0,0.556-0.037,0.89h-15.205C114.253,15.665,117.22,18.002,120.594,18.002z M126.194,9.397
				c-0.296-3.486-2.299-6.527-6.119-6.527c-3.338,0-5.86,2.782-6.23,6.527H126.194z"/>
			<path class="st1" d="M141.437,18.002c2.633,0,4.487-1.076,6.045-2.707l1.78,1.595c-1.929,2.151-4.265,3.597-7.9,3.597
				c-5.266,0-9.568-4.042-9.568-10.013c0-5.563,3.894-10.013,9.197-10.013c5.674,0,8.938,4.524,8.938,10.162
				c0,0.26,0,0.556-0.037,0.89h-15.205C135.096,15.665,138.063,18.002,141.437,18.002z M147.037,9.397
				c-0.296-3.486-2.299-6.527-6.119-6.527c-3.338,0-5.86,2.782-6.23,6.527H147.037z"/>
			<path class="st1" d="M156.68,20.041h-2.855V0.868h2.855v5.007c1.409-3.19,4.191-5.489,7.826-5.34v3.078h-0.223
				c-4.19,0-7.603,3.004-7.603,8.79V20.041z"/>
			<path class="st1" d="M174.074,20.412c-2.744,0-5.785-1.075-7.936-2.818l1.446-2.04c2.077,1.557,4.376,2.448,6.638,2.448
				c2.299,0,3.968-1.187,3.968-3.041v-0.074c0-1.929-2.262-2.67-4.784-3.375c-3.004-0.853-6.342-1.891-6.342-5.415V6.023
				c0-3.301,2.744-5.489,6.527-5.489c2.336,0,4.932,0.816,6.898,2.114l-1.298,2.151c-1.78-1.149-3.82-1.854-5.674-1.854
				c-2.262,0-3.709,1.187-3.709,2.782V5.8c0,1.817,2.374,2.522,4.932,3.301c2.967,0.89,6.157,2.04,6.157,5.489v0.074
				C180.898,18.298,177.894,20.412,174.074,20.412z"/>
		</g>
		<g>
			<path class="st1" d="M186.125,1.218c0.397,0.223,0.711,0.532,0.942,0.924c0.231,0.393,0.346,0.836,0.346,1.329
				c0,0.493-0.115,0.936-0.346,1.329c-0.231,0.393-0.545,0.701-0.942,0.924c-0.397,0.223-0.83,0.335-1.3,0.335
				c-0.47,0-0.904-0.111-1.3-0.335c-0.398-0.223-0.711-0.532-0.942-0.924c-0.231-0.393-0.347-0.836-0.347-1.329
				c0-0.493,0.116-0.936,0.347-1.329c0.231-0.393,0.545-0.701,0.942-0.924c0.396-0.223,0.829-0.335,1.3-0.335
				C185.295,0.883,185.728,0.994,186.125,1.218z M185.906,5.349c0.32-0.181,0.57-0.435,0.751-0.763
				c0.181-0.327,0.271-0.699,0.271-1.115c0-0.423-0.09-0.797-0.271-1.121c-0.182-0.324-0.432-0.576-0.751-0.757
				s-0.68-0.272-1.081-0.272c-0.401,0-0.763,0.091-1.086,0.272s-0.578,0.435-0.763,0.763c-0.185,0.327-0.277,0.699-0.277,1.115
				c0,0.416,0.092,0.788,0.277,1.115c0.184,0.328,0.439,0.582,0.763,0.763s0.686,0.272,1.086,0.272
				C185.226,5.621,185.586,5.53,185.906,5.349z M185.935,4.662c0,0.069-0.033,0.123-0.099,0.162
				c-0.066,0.039-0.144,0.058-0.237,0.058c-0.108,0-0.198-0.058-0.272-0.174c-0.073-0.116-0.109-0.277-0.109-0.485
				c0-0.139-0.033-0.253-0.099-0.341c-0.065-0.088-0.164-0.133-0.294-0.133h-0.45v0.913c0,0.046-0.023,0.088-0.07,0.127
				s-0.097,0.058-0.15,0.058c-0.054,0-0.103-0.019-0.15-0.058c-0.046-0.039-0.069-0.081-0.069-0.127V2.258
				c0-0.039,0.017-0.077,0.052-0.116s0.075-0.058,0.121-0.058h0.797c0.331,0,0.577,0.06,0.739,0.179
				c0.162,0.119,0.243,0.314,0.243,0.584c0,0.363-0.196,0.59-0.589,0.682c0.1,0.062,0.186,0.152,0.26,0.272
				c0.073,0.119,0.11,0.248,0.11,0.387c0,0.123,0.011,0.208,0.035,0.254c0.023,0.046,0.061,0.077,0.116,0.092
				C185.896,4.55,185.935,4.592,185.935,4.662z M185.282,3.223c0.112-0.073,0.167-0.183,0.167-0.329
				c0-0.154-0.044-0.258-0.133-0.312c-0.088-0.054-0.225-0.081-0.41-0.081h-0.531v0.832h0.473
				C185.026,3.332,185.17,3.296,185.282,3.223z"/>
		</g>
		<g>
			<g>
				<g>
					<path class="st1" d="M137.53,29.067L137.53,29.067c-0.183-0.188-0.416-0.283-0.693-0.283c-0.278,0-0.511,0.095-0.693,0.283
						c-0.182,0.187-0.274,0.422-0.274,0.699v3.883c0,0.54-0.135,0.958-0.401,1.243c-0.265,0.283-0.647,0.427-1.136,0.427
						c-0.5,0-0.883-0.129-1.138-0.385c-0.255-0.255-0.385-0.687-0.385-1.285v-3.883c0-0.277-0.092-0.512-0.274-0.699
						c-0.183-0.188-0.416-0.283-0.693-0.283c-0.277,0-0.511,0.095-0.693,0.283c-0.182,0.187-0.274,0.422-0.274,0.699v4.416
						c0,0.563,0.113,1.071,0.334,1.51c0.223,0.441,0.541,0.79,0.948,1.039c0.406,0.249,0.878,0.374,1.404,0.374
						c1.013,0,1.793-0.28,2.322-0.833c-0.009,0.673-0.167,1.154-0.471,1.431c-0.315,0.286-0.818,0.432-1.496,0.432
						c-0.201,0-0.397-0.022-0.583-0.065c-0.188-0.043-0.368-0.099-0.537-0.167c-0.172-0.069-0.293-0.118-0.367-0.15
						c-0.097-0.032-0.2-0.049-0.306-0.049c-0.186,0-0.359,0.063-0.515,0.188c-0.156,0.123-0.267,0.304-0.329,0.533
						c-0.032,0.096-0.049,0.184-0.049,0.262c0,0.398,0.26,0.712,0.775,0.932c0.222,0.091,0.515,0.165,0.87,0.22
						c0.354,0.054,0.705,0.082,1.042,0.082c1.169,0,2.119-0.303,2.822-0.9c0.707-0.601,1.065-1.566,1.065-2.868v-6.387
						C137.804,29.489,137.712,29.254,137.53,29.067z"/>
					<path class="st1" d="M68.879,34.76c-0.139,0-0.259,0.022-0.358,0.066c-0.094,0.042-0.196,0.102-0.303,0.178
						c-0.1,0.072-0.179,0.122-0.234,0.149c-0.225,0.112-0.577,0.169-1.047,0.169c-0.636,0-1.165-0.228-1.572-0.678
						c-0.409-0.452-0.617-1.03-0.617-1.719c0-0.717,0.205-1.306,0.609-1.748c0.403-0.44,0.969-0.664,1.684-0.664
						c0.112,0,0.263,0.019,0.451,0.058c0.185,0.038,0.325,0.08,0.415,0.125c0.085,0.048,0.174,0.108,0.264,0.178
						c0.098,0.078,0.201,0.141,0.305,0.188c0.109,0.049,0.246,0.074,0.418,0.074c0.232,0,0.422-0.092,0.565-0.274
						c0.139-0.177,0.209-0.385,0.209-0.619c0-0.464-0.274-0.839-0.813-1.114c-0.523-0.266-1.218-0.402-2.066-0.402
						c-0.761,0-1.452,0.181-2.055,0.537c-0.603,0.357-1.079,0.858-1.415,1.49c-0.336,0.63-0.506,1.361-0.506,2.171
						c0,0.78,0.162,1.497,0.483,2.132c0.321,0.638,0.782,1.144,1.37,1.506c0.588,0.362,1.277,0.545,2.049,0.545
						c0.518,0,1.014-0.063,1.473-0.188c0.462-0.126,0.84-0.297,1.123-0.509c0.296-0.222,0.446-0.467,0.446-0.729
						c0-0.266-0.079-0.488-0.235-0.66C69.364,34.848,69.148,34.76,68.879,34.76z"/>
					<path class="st1" d="M118.135,28.724c-0.526,0-1.015,0.134-1.455,0.397c-0.365,0.218-0.676,0.475-0.927,0.765v-0.031
						c0-0.277-0.092-0.512-0.274-0.699c-0.183-0.188-0.416-0.283-0.693-0.283c-0.278,0-0.511,0.095-0.693,0.283
						c-0.182,0.187-0.274,0.422-0.274,0.699v7.102h1.934v-4.776c0-0.48,0.157-0.883,0.467-1.197
						c0.309-0.314,0.744-0.473,1.293-0.473c0.524,0,0.897,0.146,1.108,0.435c0.216,0.296,0.326,0.712,0.326,1.236v4.776h1.935
						v-4.776c0-1.067-0.199-1.917-0.59-2.524C119.891,29.038,119.166,28.724,118.135,28.724z"/>
					<path class="st1" d="M90.444,29.657c-0.389-0.619-1.094-0.933-2.096-0.933c-0.597,0-1.138,0.175-1.609,0.519
						c-0.412,0.301-0.736,0.638-0.966,1.004c-0.383-1.011-1.191-1.523-2.404-1.523c-0.516,0-0.991,0.131-1.412,0.39
						c-0.348,0.214-0.648,0.467-0.896,0.756v-0.015c0-0.277-0.092-0.512-0.274-0.699c-0.183-0.188-0.416-0.283-0.693-0.283
						c-0.278,0-0.511,0.095-0.693,0.283c-0.182,0.187-0.274,0.422-0.274,0.699l0,7.102h1.934l0-4.776
						c0-0.481,0.15-0.884,0.446-1.198c0.294-0.313,0.711-0.472,1.24-0.472c0.503,0,0.858,0.146,1.054,0.433
						c0.202,0.297,0.305,0.713,0.305,1.238l0,4.776h1.934l0-4.776c0-0.481,0.15-0.884,0.446-1.198
						c0.294-0.313,0.711-0.472,1.24-0.472c0.503,0,0.858,0.146,1.054,0.433c0.202,0.297,0.305,0.713,0.305,1.238l0,4.776h1.935
						l0-4.776C91.019,31.114,90.826,30.265,90.444,29.657z"/>
					<path class="st1" d="M123.07,26.346c-0.346,0-0.594,0.058-0.757,0.178c-0.169,0.124-0.254,0.34-0.254,0.641v0.282
						c0,0.301,0.08,0.516,0.237,0.639c0.153,0.121,0.402,0.18,0.76,0.18c0.366,0,0.621-0.056,0.78-0.171
						c0.164-0.119,0.247-0.337,0.247-0.649v-0.282c0-0.3-0.08-0.515-0.238-0.639C123.69,26.405,123.436,26.346,123.07,26.346z"/>
					<path class="st1" d="M103.663,29.657c-0.389-0.619-1.094-0.933-2.096-0.933c-0.597,0-1.138,0.175-1.609,0.519
						c-0.412,0.301-0.736,0.638-0.966,1.004c-0.383-1.011-1.191-1.523-2.404-1.523c-0.516,0-0.991,0.131-1.412,0.39
						c-0.348,0.214-0.648,0.467-0.896,0.756v-0.015c0-0.277-0.092-0.512-0.274-0.699c-0.183-0.188-0.416-0.283-0.693-0.283
						c-0.278,0-0.511,0.095-0.693,0.283c-0.182,0.187-0.274,0.422-0.274,0.699l0,7.102h1.934l0-4.776
						c0-0.481,0.15-0.884,0.446-1.198c0.294-0.313,0.711-0.472,1.24-0.472c0.504,0,0.858,0.146,1.054,0.433
						c0.202,0.297,0.305,0.713,0.305,1.238l0,4.776h1.934l0-4.776c0-0.481,0.15-0.884,0.446-1.198
						c0.294-0.313,0.711-0.472,1.24-0.472c0.503,0,0.858,0.146,1.054,0.433c0.202,0.297,0.305,0.713,0.305,1.238l0,4.776h1.935
						l0-4.776C104.238,31.114,104.045,30.265,103.663,29.657z"/>
					<path class="st1" d="M76.212,29.26c-0.627-0.356-1.326-0.536-2.076-0.536c-0.761,0-1.462,0.181-2.084,0.536
						c-0.622,0.356-1.121,0.86-1.481,1.496c-0.361,0.637-0.544,1.365-0.544,2.165s0.183,1.529,0.544,2.165
						c0.361,0.637,0.86,1.138,1.482,1.489c0.621,0.351,1.322,0.529,2.084,0.529c0.752,0,1.45-0.178,2.076-0.528
						c0.627-0.351,1.129-0.852,1.489-1.489c0.361-0.636,0.544-1.364,0.544-2.165s-0.183-1.529-0.544-2.165
						C77.34,30.12,76.839,29.617,76.212,29.26z M76.016,34.174c-0.195,0.362-0.46,0.646-0.787,0.845
						c-0.327,0.199-0.695,0.3-1.093,0.3c-0.399,0-0.766-0.101-1.093-0.3c-0.327-0.199-0.592-0.483-0.787-0.845
						c-0.195-0.362-0.294-0.783-0.294-1.252c0-0.469,0.099-0.893,0.295-1.26h0c0.195-0.366,0.46-0.653,0.787-0.852
						c0.327-0.199,0.695-0.3,1.093-0.3c0.398,0,0.766,0.101,1.093,0.3c0.327,0.199,0.592,0.485,0.787,0.852
						c0.196,0.368,0.295,0.792,0.295,1.26C76.31,33.39,76.211,33.812,76.016,34.174z"/>
					<path class="st1" d="M123.07,28.998c-0.278,0-0.511,0.095-0.693,0.283c-0.182,0.187-0.274,0.422-0.274,0.699v6.977h1.935V29.98
						c0-0.277-0.092-0.512-0.274-0.699C123.58,29.093,123.347,28.998,123.07,28.998z"/>
					<path class="st1" d="M128.938,30.807c0.257,0,0.475-0.085,0.647-0.252c0.173-0.168,0.261-0.379,0.261-0.627
						c0-0.257-0.087-0.475-0.26-0.648c-0.173-0.173-0.391-0.26-0.648-0.26h-0.974v-1.69c0-0.276-0.092-0.511-0.274-0.699
						c-0.183-0.188-0.411-0.283-0.678-0.283c-0.277,0-0.512,0.095-0.7,0.282c-0.187,0.187-0.282,0.423-0.282,0.7v1.69h-0.604
						c-0.257,0-0.475,0.085-0.647,0.252c-0.173,0.168-0.261,0.378-0.261,0.626c0,0.258,0.087,0.476,0.26,0.648
						c0.172,0.173,0.39,0.26,0.648,0.26h0.604v4.012c0,0.875,0.224,1.458,0.667,1.733c0.43,0.268,0.965,0.404,1.59,0.404
						c0.379,0,0.725-0.096,1.027-0.286c0.314-0.197,0.474-0.446,0.474-0.74c0-0.235-0.064-0.429-0.189-0.577
						c-0.129-0.151-0.276-0.227-0.437-0.227c-0.119,0-0.244,0.027-0.362,0.077c-0.13,0.037-0.233,0.056-0.305,0.056
						c-0.168,0-0.3-0.041-0.394-0.122c-0.09-0.078-0.136-0.21-0.136-0.393v-3.938H128.938z"/>
					<path class="st1" d="M112.285,29.155L112.285,29.155c-0.183-0.188-0.416-0.283-0.693-0.283c-0.278,0-0.511,0.095-0.693,0.283
						c-0.182,0.187-0.274,0.422-0.274,0.699l0,3.982c0,0.48-0.157,0.883-0.467,1.198c-0.309,0.314-0.744,0.473-1.293,0.473
						c-0.524,0-0.897-0.146-1.108-0.435c-0.216-0.296-0.326-0.712-0.326-1.236l0-3.982c0-0.277-0.092-0.512-0.274-0.699
						c-0.183-0.188-0.416-0.283-0.693-0.283c-0.278,0-0.511,0.095-0.693,0.283c-0.182,0.187-0.274,0.422-0.274,0.699l0,3.982v0.193
						c0,0.036,0.002,0.07,0.005,0.104l0.004,0.06c0,0,0,0,0,0l0.004,0.07c0.001,0.012,0.001,0.024,0.002,0.037
						c0.003,0.055,0.007,0.11,0.013,0.164c0.001,0.006,0.001,0.013,0.001,0.019c0,0.001,0,0.001,0,0.002c0,0,0,0.001,0,0.001h0
						c0.067,0.778,0.266,1.222,0.564,1.685c0.399,0.619,1.124,0.933,2.155,0.933c0.829,0,1.793-0.492,2.38-1.009v0.861h1.934
						l0-7.102C112.559,29.578,112.467,29.342,112.285,29.155z"/>
				</g>
				<g>
					<path class="st1" d="M144.953,29.908c-0.515-0.324-1.094-0.488-1.722-0.488c-0.554,0-1.073,0.145-1.541,0.432
						c-0.343,0.21-0.633,0.472-0.864,0.782v-3.66c0-0.005-0.002-0.009-0.003-0.014c-0.003-0.146-0.052-0.27-0.151-0.369
						c-0.102-0.101-0.23-0.153-0.383-0.153c-0.152,0-0.281,0.051-0.383,0.153c-0.098,0.098-0.147,0.223-0.15,0.369
						c0,0.005-0.003,0.009-0.003,0.014l-0.001,9.915h1.072l0.001-1.048c0.25,0.308,0.552,0.566,0.901,0.771
						c0.463,0.272,0.974,0.41,1.518,0.41c0.629,0,1.207-0.169,1.717-0.503c0.508-0.332,0.913-0.796,1.202-1.38
						c0.288-0.58,0.434-1.233,0.434-1.939c0-0.715-0.146-1.368-0.434-1.939C145.874,30.687,145.467,30.232,144.953,29.908z
						 M145.242,34.632c-0.206,0.425-0.494,0.764-0.856,1.009c-0.36,0.243-0.772,0.366-1.223,0.366c-0.462,0-0.878-0.121-1.238-0.359
						c-0.362-0.24-0.65-0.576-0.855-1.001c-0.207-0.428-0.312-0.914-0.312-1.445c0-0.532,0.103-1.015,0.306-1.439
						c0.201-0.419,0.488-0.748,0.853-0.978c0.365-0.231,0.785-0.347,1.247-0.347c0.452,0,0.864,0.119,1.225,0.353
						c0.361,0.235,0.649,0.565,0.855,0.981c0.207,0.419,0.312,0.9,0.312,1.43C145.554,33.723,145.449,34.204,145.242,34.632z"/>
					<path class="st1" d="M151.626,29.544C151.626,29.544,151.626,29.544,151.626,29.544c-0.164-0.082-0.35-0.124-0.554-0.124
						c-0.605,0.01-1.139,0.198-1.586,0.559c-0.306,0.247-0.561,0.541-0.762,0.879v-0.695c0-0.152-0.051-0.281-0.153-0.383
						c-0.102-0.102-0.23-0.153-0.383-0.153c-0.153,0-0.282,0.052-0.383,0.153c-0.101,0.102-0.153,0.23-0.153,0.383l-0.001,6.726
						h1.072l0.001-3.951c0-0.402,0.105-0.806,0.311-1.2c0.207-0.397,0.475-0.725,0.795-0.975c0.312-0.244,0.629-0.368,0.94-0.368
						c0.105,0,0.22,0.021,0.34,0.062c0.195,0.067,0.267,0.076,0.309,0.076c0.135,0,0.253-0.052,0.351-0.156
						c0.095-0.101,0.143-0.234,0.143-0.394C151.914,29.849,151.864,29.663,151.626,29.544z"/>
					<path class="st1" d="M158.24,29.586c-0.154,0-0.284,0.055-0.385,0.162c-0.1,0.106-0.151,0.236-0.151,0.387v0.442
						c-0.222-0.292-0.508-0.54-0.853-0.74c-0.477-0.277-1.009-0.417-1.58-0.417c-0.619,0-1.191,0.164-1.701,0.488
						c-0.509,0.324-0.916,0.779-1.21,1.352c-0.293,0.572-0.442,1.224-0.442,1.94c0,0.716,0.146,1.37,0.434,1.946
						c0.289,0.579,0.694,1.041,1.202,1.373c0.51,0.334,1.092,0.503,1.731,0.503c0.563,0,1.091-0.15,1.569-0.446
						c0.344-0.213,0.628-0.464,0.85-0.749l-0.001,1.062h1.072l0.001-6.754c0-0.151-0.051-0.281-0.151-0.387
						C158.524,29.641,158.394,29.586,158.24,29.586z M157.447,34.646c-0.206,0.424-0.493,0.761-0.855,1.001c0,0,0,0,0,0
						c-0.36,0.239-0.771,0.359-1.224,0.359c-0.462,0-0.878-0.121-1.238-0.359c-0.362-0.24-0.647-0.576-0.848-1
						c-0.203-0.427-0.306-0.914-0.306-1.446c0-0.531,0.105-1.012,0.312-1.43c0.206-0.415,0.493-0.745,0.855-0.981
						c0.36-0.234,0.772-0.353,1.225-0.353c0.452,0,0.864,0.121,1.224,0.359c0.362,0.24,0.65,0.575,0.856,0.995
						c0.207,0.423,0.312,0.898,0.312,1.41C157.759,33.732,157.654,34.218,157.447,34.646z"/>
					<path class="st1" d="M163.735,29.42c-0.506,0-1.007,0.138-1.489,0.409c-0.356,0.201-0.653,0.442-0.889,0.721v-0.388
						c0-0.152-0.051-0.281-0.153-0.383c-0.102-0.102-0.23-0.153-0.383-0.153c-0.153,0-0.282,0.052-0.383,0.153
						c-0.102,0.102-0.153,0.23-0.153,0.383v6.726h1.072v-4.558c0-0.331,0.104-0.644,0.309-0.93c0.208-0.291,0.484-0.527,0.82-0.701
						c0.335-0.174,0.695-0.263,1.069-0.263c0.584,0,1.019,0.173,1.293,0.514c0.28,0.349,0.422,0.814,0.422,1.381v4.558h1.072v-4.6
						c0-0.853-0.211-1.55-0.627-2.071C165.292,29.689,164.626,29.42,163.735,29.42z"/>
					<path class="st1" d="M174.066,26.577c-0.102-0.102-0.231-0.153-0.383-0.153c-0.153,0-0.281,0.052-0.383,0.153
						c-0.102,0.102-0.153,0.23-0.153,0.383v3.639c-0.228-0.296-0.518-0.549-0.866-0.755c-0.478-0.281-1.005-0.424-1.567-0.424
						c-0.619,0-1.192,0.167-1.702,0.496c-0.509,0.328-0.915,0.787-1.209,1.366c-0.293,0.576-0.441,1.226-0.441,1.933
						c0,0.716,0.148,1.371,0.441,1.947c0.294,0.579,0.701,1.038,1.209,1.366c0.51,0.329,1.087,0.496,1.716,0.496
						c0.574,0,1.105-0.155,1.578-0.461c0.339-0.219,0.621-0.476,0.841-0.767v1.095h1.072V26.96
						C174.219,26.808,174.168,26.679,174.066,26.577C174.066,26.577,174.066,26.577,174.066,26.577z M172.89,34.66
						c-0.205,0.424-0.493,0.758-0.854,0.993c-0.36,0.234-0.772,0.353-1.225,0.353c-0.453,0-0.864-0.121-1.224-0.359
						c-0.362-0.24-0.65-0.574-0.855-0.995c-0.207-0.423-0.312-0.906-0.312-1.438c0-0.522,0.105-1.001,0.312-1.424
						c0.205-0.42,0.493-0.754,0.855-0.995c0.36-0.239,0.772-0.359,1.224-0.359c0.452,0,0.864,0.121,1.224,0.359
						c0.362,0.24,0.65,0.575,0.856,0.995c0.207,0.423,0.312,0.902,0.312,1.424C173.203,33.746,173.098,34.232,172.89,34.66z"/>
					<path class="st1" d="M179.637,33.146c-0.32-0.15-0.727-0.287-1.209-0.408c-0.602-0.153-1.062-0.325-1.368-0.511
						c-0.284-0.173-0.43-0.416-0.446-0.738c0-0.365,0.133-0.63,0.408-0.81c0.287-0.188,0.638-0.284,1.045-0.284
						c0.332,0,0.646,0.062,0.933,0.184c0.285,0.121,0.536,0.301,0.748,0.54c0.097,0.097,0.21,0.146,0.335,0.146
						c0.13,0,0.241-0.038,0.33-0.114c0.118-0.107,0.178-0.234,0.178-0.38c0-0.151-0.056-0.277-0.161-0.364
						c-0.296-0.341-0.656-0.594-1.07-0.751c-0.412-0.157-0.829-0.236-1.238-0.236c-0.476,0-0.908,0.087-1.286,0.26
						c-0.382,0.174-0.688,0.422-0.912,0.738c-0.226,0.319-0.34,0.684-0.34,1.085c0,0.637,0.236,1.128,0.7,1.459
						c0.442,0.315,1.06,0.575,1.836,0.771c0.528,0.134,0.944,0.296,1.235,0.482c0.269,0.171,0.399,0.422,0.399,0.767
						c0,0.354-0.142,0.617-0.434,0.802c-0.306,0.194-0.672,0.292-1.088,0.292c-0.87,0-1.547-0.337-2.071-1.029
						c-0.003-0.005-0.007-0.009-0.011-0.013c-0.116-0.115-0.247-0.174-0.39-0.174c-0.118,0-0.217,0.036-0.294,0.106
						c-0.188,0.108-0.228,0.263-0.228,0.375c0,0.108,0.042,0.228,0.137,0.379c0.684,0.865,1.617,1.303,2.774,1.303
						c0.732,0,1.356-0.187,1.854-0.555c0.509-0.377,0.767-0.891,0.767-1.527c0-0.466-0.108-0.848-0.321-1.136
						C180.241,33.523,179.967,33.301,179.637,33.146z"/>
					<path class="st1" d="M182.216,30.47c-0.006-0.017-0.01-0.043-0.013-0.08c0-0.041-0.011-0.079-0.033-0.113
						c-0.022-0.034-0.049-0.06-0.08-0.08c0.117-0.034,0.175-0.105,0.175-0.211c0-0.165-0.098-0.248-0.295-0.248h-0.265
						c-0.017,0-0.031,0.006-0.042,0.018c-0.011,0.012-0.016,0.026-0.016,0.04v0.743c0,0.019,0.007,0.036,0.021,0.049
						c0.015,0.013,0.032,0.02,0.051,0.02c0.019,0,0.037-0.007,0.053-0.022c0.016-0.014,0.024-0.03,0.024-0.047v-0.276h0.134
						c0.041,0,0.072,0.013,0.093,0.038c0.021,0.026,0.031,0.06,0.031,0.104c0,0.063,0.011,0.112,0.033,0.148
						c0.022,0.035,0.049,0.055,0.08,0.06c0.027,0.005,0.051,0.003,0.073-0.007c0.022-0.01,0.035-0.025,0.04-0.044
						c0.005-0.012,0.005-0.023,0-0.034c-0.005-0.011-0.014-0.019-0.029-0.024C182.234,30.499,182.222,30.488,182.216,30.47z
						 M182.073,30.094c-0.032,0.023-0.073,0.034-0.124,0.034h-0.152v-0.247h0.164c0.053,0,0.093,0.009,0.12,0.026
						c0.027,0.017,0.04,0.047,0.04,0.091C182.12,30.039,182.104,30.071,182.073,30.094z"/>
					<path class="st1" d="M182.587,29.803c-0.07-0.119-0.165-0.213-0.285-0.282c-0.12-0.069-0.252-0.103-0.394-0.103
						c-0.142,0-0.274,0.034-0.394,0.103c-0.12,0.069-0.216,0.163-0.285,0.282c-0.07,0.119-0.105,0.252-0.105,0.4
						c0,0.147,0.035,0.28,0.105,0.401c0.07,0.12,0.165,0.214,0.285,0.282c0.121,0.068,0.252,0.101,0.394,0.101
						c0.142,0,0.274-0.033,0.394-0.101c0.12-0.068,0.216-0.162,0.285-0.282c0.07-0.121,0.105-0.254,0.105-0.401
						C182.692,30.056,182.657,29.922,182.587,29.803z M182.449,30.53c-0.055,0.097-0.129,0.172-0.224,0.226
						c-0.094,0.054-0.2,0.081-0.317,0.081c-0.117,0-0.223-0.027-0.319-0.081c-0.095-0.054-0.172-0.129-0.227-0.226
						c-0.056-0.097-0.084-0.206-0.084-0.327c0-0.122,0.028-0.231,0.084-0.328c0.056-0.097,0.132-0.172,0.227-0.226
						c0.096-0.054,0.202-0.081,0.319-0.081c0.117,0,0.222,0.027,0.317,0.081c0.095,0.054,0.169,0.129,0.224,0.226
						c0.055,0.097,0.082,0.206,0.082,0.328C182.531,30.324,182.504,30.433,182.449,30.53z"/>
				</g>
			</g>
			<g>
				<path class="st1" d="M52.387,31.4c0.385,0.242,0.687,0.581,0.905,1.012c0.217,0.431,0.326,0.918,0.326,1.462
					c0,0.535-0.109,1.021-0.326,1.46c-0.218,0.439-0.518,0.783-0.899,1.033c-0.383,0.25-0.809,0.376-1.279,0.376
					c-0.407,0-0.785-0.102-1.131-0.305c-0.346-0.204-0.625-0.472-0.84-0.809v0.707c0,0.093-0.03,0.172-0.091,0.235
					c-0.061,0.065-0.137,0.096-0.229,0.096c-0.094,0-0.17-0.031-0.231-0.096c-0.061-0.063-0.091-0.142-0.091-0.235v-7.289
					c0-0.094,0.03-0.17,0.091-0.231c0.061-0.061,0.137-0.091,0.231-0.091c0.093,0,0.168,0.03,0.229,0.091
					c0.061,0.061,0.091,0.137,0.091,0.231v3.157c0.192-0.35,0.464-0.631,0.814-0.846c0.35-0.215,0.731-0.32,1.145-0.32
					C51.573,31.037,52.002,31.157,52.387,31.4z M52.05,35.843c0.296-0.2,0.527-0.474,0.696-0.82
					c0.167-0.346,0.252-0.729,0.252-1.149c0-0.429-0.085-0.812-0.252-1.151c-0.168-0.339-0.4-0.605-0.696-0.798
					c-0.296-0.192-0.631-0.291-1.001-0.291c-0.379,0-0.718,0.096-1.018,0.285c-0.3,0.189-0.531,0.455-0.696,0.798
					c-0.165,0.342-0.246,0.727-0.246,1.157c0,0.427,0.083,0.814,0.252,1.16c0.168,0.346,0.4,0.618,0.696,0.814
					c0.296,0.196,0.633,0.294,1.012,0.294C51.419,36.142,51.754,36.043,52.05,35.843z"/>
				<path class="st1" d="M59.252,31.159c0.061,0.061,0.093,0.137,0.093,0.229v4.722c0,0.563-0.111,1.044-0.333,1.443
					c-0.22,0.4-0.527,0.703-0.92,0.91c-0.392,0.207-0.835,0.311-1.329,0.311c-0.3,0-0.579-0.031-0.84-0.096
					c-0.261-0.065-0.476-0.15-0.648-0.257c-0.15-0.093-0.224-0.196-0.224-0.311c0-0.013,0.007-0.05,0.02-0.107
					c0.022-0.07,0.057-0.124,0.107-0.159c0.05-0.037,0.104-0.054,0.161-0.054c0.043,0,0.085,0.011,0.128,0.031
					c0.457,0.25,0.892,0.376,1.306,0.376c0.592,0,1.062-0.187,1.408-0.557c0.346-0.372,0.518-0.879,0.518-1.521v-0.374
					c-0.178,0.3-0.435,0.54-0.77,0.722c-0.335,0.183-0.699,0.274-1.092,0.274c-0.622,0-1.092-0.185-1.414-0.557
					c-0.32-0.37-0.481-0.873-0.481-1.51v-3.286c0-0.093,0.03-0.168,0.091-0.229c0.061-0.061,0.137-0.091,0.231-0.091
					c0.093,0,0.168,0.03,0.229,0.091c0.061,0.061,0.091,0.137,0.091,0.229v3.19c0,0.514,0.113,0.903,0.337,1.168
					c0.226,0.265,0.577,0.396,1.055,0.396c0.292,0,0.574-0.074,0.84-0.22c0.268-0.146,0.483-0.339,0.642-0.577
					c0.161-0.239,0.241-0.494,0.241-0.766v-3.19c0-0.093,0.031-0.168,0.093-0.229c0.059-0.061,0.137-0.091,0.229-0.091
					C59.115,31.068,59.193,31.098,59.252,31.159z"/>
			</g>
		</g>
	</g>
</g>
</svg>
